<?xml version="1.0" encoding="utf-8"?>
<!-- Generator: Adobe Illustrator 28.1.0, SVG Export Plug-In . SVG Version: 6.00 Build 0)  -->
<svg version="1.1" id="WBG_CMYK" xmlns="http://www.w3.org/2000/svg" xmlns:xlink="http://www.w3.org/1999/xlink" x="0px" y="0px"
	 viewBox="0 0 267.1 66.3" style="enable-background:new 0 0 267.1 66.3;" xml:space="preserve">
<style type="text/css">
	.st0{clip-path:url(#SVGID_00000061435933850374358370000007383001108341312131_);}
</style>
<path d="M254.5,20.2c3.6,0,5.7,1.8,5.7,5c0,3-2,4.8-5.3,4.8h-2.3v4.6h-3.1V20.2H254.5z M252.5,27.5h1.8c1.8,0,2.7-0.8,2.7-2.3
	c0-1.6-1-2.4-2.8-2.4h-1.7V27.5z M243.8,28.8c0,2.1-0.8,3.1-2.5,3.1c-1.7,0-2.5-1.1-2.5-3.1v-8.6h-3.1v8.4c0,2.1,0.5,3.6,1.5,4.7
	c1,1,2.3,1.4,4.1,1.4c2.5,0,5.6-1.1,5.6-6.1v-8.4h-3.1V28.8z M227.3,20.1c3.1,0,6.4,1.9,6.4,7.3c0,5.4-3.3,7.3-6.4,7.3
	c-3.1,0-6.5-1.9-6.5-7.3C220.8,22,224.2,20.1,227.3,20.1 M227.3,32c1.2,0,3.3-0.6,3.3-4.6s-2-4.6-3.3-4.6c-2.1,0-3.3,1.6-3.3,4.6
	C224,30.4,225.2,32,227.3,32 M217.7,30.2c0.5,1,0.9,1.9,2,1.9h0.7v2.4l-0.1,0c0,0-0.6,0.1-1.5,0.1c-2.4,0-3.2-1.7-3.8-3.1
	c-0.5-1.2-1-2.3-2.3-2.3h-1.4v5.3h-3.1V20.2h5.1c3.7,0,5.5,1.5,5.5,4.6c0,1.9-1.2,3.1-2.3,3.6C217,28.9,217.3,29.6,217.7,30.2
	 M211.3,26.9h1.7c1.7,0,2.8-0.8,2.8-2.1c0-1.3-0.9-2.1-2.5-2.1h-1.9V26.9z M200.1,29.3h3.2v0.2c0,0.9-0.3,2.5-2.5,2.5
	c-2.1,0-3.3-1.7-3.3-4.6c0-2.9,1.2-4.6,3.3-4.6c2.5,0,2.6,2.5,2.6,2.6l0,0.2l2.9-0.4V25c0-1-0.9-4.9-5.5-4.9c-4.1,0-6.4,2.7-6.4,7.3
	c0,4.6,2.4,7.3,6.4,7.3c4.1,0,5.5-2.8,5.5-5.3V27h-6.1V29.3z M190.9,20.2h-3.6l-4.8,6.5v-6.5h-3.1v14.4h3.1V28l4.9,6.6h3.7l-5.6-7.3
	L190.9,20.2z M173.5,29.1l-5-8.9h-3.1v14.4h3.1V26l5,8.6h3.1V20.2h-3.1V29.1z M159.2,20.3l5.3,14.3h-3.2l-1.2-3.5h-4.8l-1.2,3.5
	h-3.2l5.3-14.4L159.2,20.3L159.2,20.3z M157.7,24.1l-1.6,4.5h3.1L157.7,24.1z M148,27c1.1,0.3,2.6,1.3,2.6,3.5
	c0,2.6-1.8,4.1-5.1,4.1h-6.1V20.2h5.5c3.1,0,4.7,1.3,4.7,3.9C149.6,26,148.7,26.7,148,27 M144.6,26.1c1.3,0,1.9-0.5,1.9-1.7
	c0-1.1-0.8-1.7-2.3-1.7h-1.7v3.3H144.6z M142.5,32h2.4c1.6,0,2.3-0.6,2.3-1.9c0-1.6-1.3-1.9-2.4-1.9h-2.3V32z M126.8,20.2
	c4.5,0,7.2,2.8,7.2,7.5c0,4.4-2.4,7-6.6,7h-4.9V20.2H126.8z M125.6,32h1.8c2.2,0,3.5-1.7,3.5-4.5c0-3.2-1.4-4.9-4.2-4.9h-1.2V32z
	 M114.8,20.2h-3.1v14.4h9.3V32h-6.2V20.2z M107.6,30.2c0.5,1,0.9,1.9,2,1.9h0.7v2.4l-0.1,0c0,0-0.6,0.1-1.5,0.1
	c-2.4,0-3.2-1.7-3.8-3.1c-0.5-1.2-1-2.3-2.3-2.3h-1.4v5.3h-3.1V20.2h5.1c3.7,0,5.5,1.5,5.5,4.6c0,1.9-1.2,3.1-2.3,3.6
	C106.9,28.9,107.3,29.6,107.6,30.2 M101.2,26.9h1.7c1.7,0,2.8-0.8,2.8-2.1c0-1.3-0.9-2.1-2.5-2.1h-1.9V26.9z M90,20.1
	c3.1,0,6.4,1.9,6.4,7.3c0,5.4-3.3,7.3-6.4,7.3c-3.1,0-6.5-1.9-6.5-7.3C83.5,22,86.8,20.1,90,20.1 M90,32c1.2,0,3.3-0.6,3.3-4.6
	s-2-4.6-3.3-4.6c-2.1,0-3.3,1.6-3.3,4.6C86.7,30.4,87.9,32,90,32 M79.6,20.2h3.5l-4.1,14.4h-3.5l-2.5-9l-2.6,9h-3.5l-4.1-14.4h3.6
	l2.4,10.5l2.9-10.5h2.6l2.8,10.5L79.6,20.2z"/>
<g>
	<defs>
		<path id="SVGID_1_" d="M38.7,49.5c3.2,0,6.3-0.5,9-1.4c0.7-0.2,1.3-0.5,2-0.8c-0.8,1.8-1.9,3.4-3.3,4.5c-2.9,2.1-6.2,3.5-9.9,4.1
			C37.4,54.4,38.2,52.2,38.7,49.5 M23.5,54c-0.1-0.1-0.1-0.1-0.2-0.1c-1.3-0.6-1.8-3.5-1.1-7.8c2.4,1.1,5.1,2,7.9,2.6
			c2.1,0.5,4.2,0.7,6.3,0.8c-1,4.4-2.3,6.7-3.2,6.7c-0.1,0-0.1,0-0.2,0C29.6,56.2,26.4,55.4,23.5,54 M11.7,40
			c-0.2-0.7-0.3-1.5-0.4-2.3c0.8,1.1,1.7,2.2,2.8,3.2c1.7,1.6,3.7,2.9,5.9,4.1c-0.5,2.5-0.6,4.8-0.3,6.7C15.9,48.8,13,44.7,11.7,40
			 M40.2,33.8c0-0.9,0-1.8,0-2.7c2.9-0.2,5.5-0.9,7.7-2.2c2,4,3.1,8.1,3.1,12.1c0,1.1-0.1,2.2-0.3,3.3c-1,0.6-2.2,1.2-3.5,1.6
			c-2.4,0.8-5,1.2-7.9,1.3C39.9,43.2,40.2,38.4,40.2,33.8 M30.6,46.4c-2.8-0.6-5.5-1.5-8-2.7c0.8-3.6,2.3-7.9,4.6-12.8
			c0.3-0.7,0.7-1.4,1-2.1c1.6,0.7,3.4,1.3,5.3,1.7c1.4,0.3,2.9,0.5,4.3,0.5c0,0.9,0,1.7,0,2.7c0,5.4-0.4,9.9-1.1,13.4
			C34.8,47.1,32.7,46.9,30.6,46.4 M15.7,39.2c-1.9-1.8-3.3-3.7-4-5.6c0.5-2.1,1.6-4.3,3.1-6.3c1.5-1.9,3.3-3.7,5.4-5.2
			c0.6,1.1,1.4,2.1,2.5,3.2c1,1,2.2,1.8,3.5,2.6c-0.4,0.7-0.7,1.4-1.1,2.1c-2,4.2-3.7,8.6-4.7,12.7C18.7,41.7,17.1,40.5,15.7,39.2
			 M38.6,17.9c2.6,1.9,5,4.4,7,7.4c0.4,0.6,0.7,1.1,1.1,1.7c-1.8,1.1-4.1,1.7-6.6,1.9C39.8,24.9,39.4,21.1,38.6,17.9 M34.1,28.4
			c-1.7-0.4-3.2-0.9-4.7-1.5c2.1-3.7,4.5-7,6.8-9.4c0.7,2.8,1.3,6.7,1.6,11.4C36.5,28.8,35.3,28.7,34.1,28.4 M24.3,23.6
			c-0.9-0.9-1.7-1.8-2.2-2.7c2.2-1.3,4.5-2.3,7.1-3.1c1.5-0.5,3-0.8,4.6-1c-2.2,2.5-4.4,5.6-6.4,9.1C26.2,25.2,25.2,24.4,24.3,23.6
			 M19.3,16.3c0,0.1-0.1,0.2-0.1,0.4c-0.2,1.1-0.2,2.2,0.1,3.3c-2.5,1.7-4.6,3.7-6.3,6c-0.5,0.7-1,1.4-1.4,2.1
			C12.9,23.3,15.6,19.2,19.3,16.3 M21.5,17.1c0.3-1.2,1-2.3,2.1-3.1c2.7-0.8,5.8-0.6,9.1,0.6c-1.4,0.2-2.8,0.6-4.1,1
			c-2.5,0.8-4.9,1.8-7.1,3.1C21.4,18.1,21.4,17.6,21.5,17.1 M40.1,14.1c0.8-0.5,1.5-0.9,2.1-1c1.1,0.5,2.3,1,3.4,1.8
			C43.9,14.5,42,14.2,40.1,14.1 M36.2,11.7c0.9,0.1,1.9,0.3,2.9,0.5c-0.6,0.3-1.3,0.8-2,1.3C36.9,12.8,36.6,12.2,36.2,11.7
			 M33.8,12.6c-1-0.4-2.1-0.7-3.1-0.9c0.8-0.1,1.6-0.1,2.5-0.1c0.4,0,0.9,0.5,1.4,1.4C34.3,12.8,34,12.7,33.8,12.6 M8.5,33.9
			c0,2.3,0.3,4.6,0.9,6.8c0,0.1,0.1,0.3,0.1,0.4c0,0,0,0.1,0,0.1c3.1,10.1,12.5,17.4,23.6,17.4c5.1,0,9.9-1.6,13.8-4.2
			c0,0,0.1,0,0.1-0.1c0.2-0.2,0.5-0.3,0.7-0.5c4.5-3.4,7.9-8.2,9.3-13.9c0.1-0.3,0.1-0.5,0.2-0.8c0-0.1,0-0.1,0-0.2
			c0.3-1.6,0.5-3.3,0.5-5c0-3.3-0.7-6.6-1.9-9.6c-0.2-0.6-0.9-0.9-1.5-0.6c-0.6,0.2-0.9,0.9-0.6,1.5c1.2,2.8,1.8,5.7,1.8,8.7
			c0,1.9-0.2,3.6-0.7,5.4c-0.3,1.1-0.9,2.1-1.8,3c0-0.4,0-0.8,0-1.2c0-4.4-1.2-9-3.5-13.4c1.7-1.4,2.7-3.2,3.1-5.1
			c0.1-0.6-0.3-1.2-0.9-1.3c-0.6-0.1-1.2,0.3-1.3,0.9c-0.2,1.3-0.9,2.5-2,3.5c-0.3-0.5-0.7-1.1-1-1.6c-2-3-4.4-5.5-7-7.5
			c3.5,0.2,6.6,1.1,9.2,2.5c0.4,0.2,0.9,0.2,1.3-0.1c0.5-0.4,0.6-1.1,0.1-1.6c-3.7-5.2-10.1-8-18-8C19.6,9.2,8.5,20.3,8.5,33.9"/>
	</defs>
	<use xlink:href="#SVGID_1_"  style="overflow:visible;"/>
	<clipPath id="SVGID_00000041254215883773985550000016754416521904915384_">
		<use xlink:href="#SVGID_1_"  style="overflow:visible;"/>
	</clipPath>
	
		<rect x="8.5" y="9.2" style="clip-path:url(#SVGID_00000041254215883773985550000016754416521904915384_);" width="49.3" height="49.3"/>
</g>
<g>
	<path d="M64.5,47.5v-8h2.8c1.9,0,3.1,0.9,3.1,2.7c0,1.8-1.3,2.6-2.9,2.6H66v2.6H64.5z M67.2,43.7c1,0,1.6-0.5,1.6-1.4
		c0-0.9-0.5-1.4-1.7-1.4H66v2.8H67.2z"/>
	<path d="M71.5,47.5v-3.9c0-0.3-0.1-0.5-0.5-0.5v-1.1c0,0,0.2-0.1,0.6-0.1c1,0,1.1,0.7,1.1,0.9v0c0.1-0.5,0.6-1,1.6-1
		c0.6,0,0.9,0.2,0.9,0.2l-0.6,1.3c0,0-0.2-0.2-0.7-0.2c-0.7,0-1,0.6-1,1.1v3.1H71.5z"/>
	<path d="M75.5,44.8c0-1.7,0.9-2.8,2.5-2.8c1.6,0,2.6,1.1,2.6,2.8c0,1.7-0.9,2.8-2.6,2.8C76.5,47.6,75.5,46.5,75.5,44.8z M79.2,44.8
		c0-1-0.3-1.5-1.1-1.5c-0.7,0-1.1,0.6-1.1,1.5c0,1,0.3,1.5,1.1,1.5C78.8,46.3,79.2,45.7,79.2,44.8z"/>
	<path d="M84.8,44.1c0,0,0.1-0.2,0.1-0.4c0-0.3-0.2-0.6-0.9-0.6c-0.6,0-0.9,0.2-0.9,0.6c0,1.1,3.2,0.2,3.2,2.2c0,1-0.8,1.7-2.4,1.7
		c-2,0-2.5-1.1-2.5-1.1l0.8-0.8c0,0,0.6,0.8,1.6,0.8c0.6,0,0.8-0.2,0.8-0.5c0-0.9-3-0.2-3-2.2c0-0.9,0.6-1.7,2.3-1.7
		c1.7,0,2.2,0.8,2.2,1.6c0,0.3-0.1,0.5-0.1,0.5H84.8z"/>
	<path d="M87.6,50.3v-6.6c0-0.3-0.1-0.5-0.5-0.5v-1.1c0,0,0.2-0.1,0.6-0.1c0.8,0,1.1,0.5,1.1,0.9v0c0.1-0.3,0.5-0.9,1.7-0.9
		c1.1,0,2.2,0.8,2.2,2.8c0,2-1.1,2.8-2.3,2.8c-1,0-1.4-0.6-1.4-0.6v3.3H87.6z M89,45.3c0,0.2,0.3,0.9,1.1,0.9c0.7,0,1.1-0.5,1.1-1.5
		c0-1.1-0.6-1.5-1.2-1.5c-0.9,0-1.1,1-1.1,1V45.3z"/>
	<path d="M95.1,45L95.1,45c0,0.8,0.7,1.3,1.3,1.3c0.9,0,1.3-0.7,1.3-0.7l0.8,0.8c0,0-0.6,1.1-2.3,1.1c-1.5,0-2.6-1-2.6-2.8
		c0-1.8,0.9-2.8,2.6-2.8c1.7,0,2.2,1.2,2.2,1.8c0,1.1-0.8,1.4-2.1,1.4C95.6,45.2,95.1,45,95.1,45z M96.1,44.3c0.5,0,0.9-0.1,0.9-0.5
		c0-0.3-0.3-0.7-0.9-0.7c-0.6,0-1,0.4-1,1C95.1,44.1,95.4,44.3,96.1,44.3z"/>
	<path d="M99.8,47.5v-3.9c0-0.3-0.1-0.5-0.5-0.5v-1.1c0,0,0.2-0.1,0.6-0.1c1,0,1.1,0.7,1.1,0.9v0c0.1-0.5,0.6-1,1.6-1
		c0.6,0,0.9,0.2,0.9,0.2l-0.6,1.3c0,0-0.2-0.2-0.7-0.2c-0.7,0-1,0.6-1,1.1v3.1H99.8z"/>
	<path d="M105,41c-0.5,0-0.9-0.4-0.9-0.9c0-0.5,0.4-0.9,0.9-0.9c0.5,0,0.9,0.4,0.9,0.9C105.9,40.7,105.5,41,105,41z M106.2,47.5
		c0,0-0.2,0.1-0.7,0.1c-0.8,0-1.3-0.5-1.3-1.4V42h1.5v3.9c0,0.3,0.1,0.5,0.5,0.5V47.5z"/>
	<path d="M111.4,47c0,0-0.6,0.6-1.5,0.6c-1.6,0-2.2-0.9-2.2-2.4v-2h-0.8V42h0.8v-1.7h1.5V42h1.9v1.2h-1.9v1.9c0,0.8,0.3,1.2,0.9,1.2
		c0.5,0,0.9-0.3,0.9-0.3L111.4,47z"/>
	<path d="M117,47.8c0,1.6-1,2.6-2.6,2.6c-1.8,0-2.4-1.1-2.4-1.1l0.8-0.9c0,0,0.4,0.7,1.4,0.7c0.7,0,1.4-0.4,1.4-1.3v-1
		c-0.3,0.4-0.8,0.8-1.7,0.8c-1.3,0-1.7-0.8-1.7-2V42h1.5v3.2c0,0.7,0.3,1,0.8,1c0.8,0,1.1-0.9,1.1-1.2V42h1.5V47.8z"/>
</g>
</svg>
