<?xml version="1.0" encoding="UTF-8"?>
<svg id="WBG_CMYK" data-name="WBG CMYK" xmlns="http://www.w3.org/2000/svg" xmlns:xlink="http://www.w3.org/1999/xlink" viewBox="0 0 267.08 66.28">
  <defs>
    <style>
      .cls-1, .cls-2 {
        fill: #fff;
      }

      .cls-2 {
        stroke-width: 0px;
      }

      .cls-3 {
        clip-path: url(#clippath);
      }
    </style>
    <clipPath id="clippath">
      <path class="cls-2" d="M38.74,49.53c3.24-.04,6.31-.51,9.03-1.43.69-.23,1.34-.49,1.96-.76-.76,1.85-1.87,3.39-3.32,4.54-2.86,2.11-6.23,3.55-9.9,4.1.92-1.58,1.66-3.82,2.22-6.45M23.5,54.03c-.07-.05-.14-.11-.22-.15-1.28-.62-1.79-3.46-1.12-7.81,2.45,1.1,5.11,1.97,7.92,2.57,2.12.45,4.24.73,6.31.84-1.01,4.41-2.31,6.72-3.18,6.72-.05,0-.11.01-.16.02-3.41-.02-6.65-.81-9.54-2.2M11.67,39.98c-.2-.75-.32-1.51-.37-2.28.76,1.09,1.7,2.15,2.81,3.18,1.68,1.55,3.67,2.94,5.89,4.13-.45,2.54-.58,4.84-.29,6.69-3.83-2.89-6.69-6.99-8.04-11.72M40.19,33.82c0-.89-.01-1.79-.04-2.69,2.85-.19,5.5-.93,7.66-2.17,2,3.96,3.08,8.14,3.07,12.09,0,1.14-.1,2.23-.28,3.26-1.03.63-2.22,1.18-3.55,1.63-2.37.8-5.04,1.23-7.87,1.3.68-4.08,1.01-8.81,1.01-13.41M30.55,46.4c-2.84-.61-5.52-1.51-7.96-2.65.8-3.59,2.28-7.94,4.64-12.77.34-.7.69-1.39,1.05-2.06,1.65.74,3.44,1.33,5.32,1.73,1.43.31,2.86.47,4.26.52.02.86.04,1.75.04,2.66,0,5.4-.43,9.89-1.06,13.39-2.05-.09-4.16-.36-6.29-.81M15.68,39.2c-1.95-1.8-3.29-3.71-3.97-5.6.54-2.12,1.59-4.25,3.13-6.29,1.46-1.93,3.28-3.68,5.36-5.17.6,1.09,1.44,2.15,2.52,3.15,1.02.95,2.21,1.82,3.53,2.58-.36.69-.72,1.39-1.06,2.1-2.04,4.17-3.7,8.65-4.67,12.71-1.81-1.02-3.44-2.19-4.83-3.47M38.63,17.89c2.61,1.94,5,4.45,7,7.38.38.56.74,1.12,1.08,1.69-1.83,1.06-4.15,1.69-6.65,1.87-.21-3.96-.68-7.77-1.42-10.94M34.08,28.4c-1.66-.35-3.24-.86-4.69-1.5,2.14-3.74,4.48-7,6.79-9.42.72,2.84,1.33,6.66,1.58,11.39-1.22-.05-2.45-.2-3.68-.47M24.28,23.62c-.95-.89-1.67-1.81-2.16-2.74,2.15-1.29,4.53-2.35,7.06-3.11,1.51-.45,3.03-.79,4.55-1.02-2.2,2.46-4.39,5.59-6.4,9.12-1.15-.66-2.18-1.42-3.06-2.24M19.35,16.31c-.03.12-.07.23-.09.35-.23,1.08-.21,2.19.07,3.29-2.47,1.7-4.61,3.72-6.32,5.98-.52.69-.99,1.39-1.41,2.1,1.27-4.7,4.04-8.79,7.75-11.72M21.5,17.14c.25-1.19.97-2.25,2.08-3.13,2.68-.8,5.79-.61,9.07.59-1.38.24-2.76.56-4.12.97-2.53.76-4.92,1.8-7.11,3.06-.05-.5-.03-1,.08-1.48M40.11,14.12c.79-.51,1.51-.86,2.12-1,1.15.46,2.29,1.05,3.37,1.79-1.74-.43-3.58-.7-5.49-.79M36.25,11.66c.93.1,1.92.26,2.94.5-.64.34-1.3.77-1.98,1.29-.3-.68-.62-1.28-.97-1.79M33.76,12.56c-1.04-.4-2.06-.7-3.07-.93.81-.09,1.63-.14,2.47-.14.39,0,.87.47,1.37,1.38-.25-.11-.51-.22-.76-.31M8.52,33.86c0,2.34.34,4.61.95,6.76.04.15.07.29.11.43.01.03.02.05.03.08,3.11,10.06,12.5,17.39,23.57,17.39,5.12,0,9.88-1.57,13.83-4.25.04-.02.08-.04.12-.07.23-.16.46-.33.68-.5,4.54-3.35,7.89-8.22,9.3-13.85.08-.26.15-.52.21-.79.01-.06.02-.12.02-.19.34-1.62.51-3.3.51-5.01,0-3.33-.65-6.56-1.94-9.6-.25-.58-.92-.86-1.5-.61-.58.24-.86.92-.61,1.5,1.17,2.76,1.76,5.69,1.76,8.71,0,1.85-.23,3.65-.66,5.37-.34,1.09-.93,2.09-1.76,3,.02-.39.03-.78.03-1.18,0-4.4-1.21-9.05-3.47-13.42,1.66-1.42,2.71-3.18,3.07-5.14.12-.62-.3-1.22-.92-1.34-.62-.12-1.22.3-1.34.92-.24,1.3-.92,2.49-1.97,3.5-.33-.54-.67-1.08-1.03-1.61-2.01-2.95-4.41-5.51-7.02-7.54,3.46.23,6.65,1.06,9.22,2.5.4.23.94.22,1.32-.09.49-.4.55-1.13.15-1.62-3.7-5.17-10.09-8.02-18-8.02-13.6,0-24.66,11.06-24.66,24.66"/>
    </clipPath>
  </defs>
  <path class="cls-2" d="M254.46,20.17c3.64,0,5.65,1.77,5.65,4.97,0,3.02-1.98,4.83-5.29,4.83h-2.32v4.63h-3.07v-14.42h5.03ZM252.5,27.46h1.84c1.78,0,2.68-.78,2.68-2.32s-.99-2.42-2.79-2.42h-1.73v4.74ZM243.77,28.82c0,2.12-.81,3.15-2.48,3.15s-2.54-1.06-2.54-3.15v-8.65h-3.07v8.44c0,2.06.51,3.63,1.53,4.66.95.96,2.33,1.44,4.09,1.44,2.53,0,5.55-1.06,5.55-6.1v-8.44h-3.07v8.65ZM227.3,20.05c3.12,0,6.44,1.93,6.44,7.35s-3.33,7.31-6.44,7.31-6.46-1.92-6.46-7.31,3.34-7.35,6.46-7.35M227.3,32.03c1.22,0,3.27-.6,3.27-4.62s-2.05-4.62-3.27-4.62c-2.12,0-3.29,1.64-3.29,4.62s1.17,4.62,3.29,4.62M217.66,30.22c.51,1.03.95,1.93,1.96,1.93h.73v2.37l-.11.03s-.55.15-1.49.15c-2.42,0-3.17-1.67-3.83-3.14-.54-1.21-1-2.25-2.27-2.25h-1.35v5.29h-3.07v-14.42h5.11c3.73,0,5.48,1.46,5.48,4.59,0,1.94-1.16,3.13-2.32,3.64.51.49.84,1.17,1.16,1.82M211.31,26.92h1.71c1.71,0,2.76-.8,2.76-2.08,0-1.35-.93-2.12-2.54-2.12h-1.93v4.2ZM200.05,29.32h3.17v.16c0,.93-.33,2.5-2.54,2.5-2.09,0-3.33-1.71-3.33-4.58s1.19-4.62,3.27-4.62c2.47,0,2.56,2.5,2.56,2.61v.16s2.87-.45,2.87-.45v-.12c0-1.04-.93-4.93-5.47-4.93-4.07,0-6.4,2.68-6.4,7.35s2.41,7.31,6.44,7.31,5.49-2.83,5.49-5.25v-2.51h-6.06v2.37ZM190.85,20.17h-3.65l-4.77,6.49v-6.49h-3.11v14.42h3.11v-6.64l4.89,6.64h3.69l-5.58-7.27,5.42-7.15ZM173.48,29.08l-5.04-8.91h-3.11v14.42h3.07v-8.6l5.02,8.6h3.13v-14.42h-3.07v8.91ZM159.24,20.27l5.26,14.33h-3.2l-1.23-3.54h-4.81l-1.19,3.54h-3.22l5.3-14.42h3.05l.03.09ZM157.68,24.1l-1.56,4.55h3.15l-1.59-4.55ZM148.01,27c1.11.32,2.56,1.33,2.56,3.5,0,2.61-1.85,4.1-5.07,4.1h-6.08v-14.42h5.49c3.12,0,4.71,1.3,4.71,3.88,0,1.99-.91,2.7-1.61,2.94M144.59,26.07c1.28,0,1.88-.54,1.88-1.69,0-1.1-.76-1.65-2.26-1.65h-1.71v3.35h2.1ZM142.49,32.05h2.4c1.57,0,2.3-.59,2.3-1.85,0-1.55-1.28-1.88-2.36-1.88h-2.34v3.73ZM126.76,20.17c4.49,0,7.17,2.79,7.17,7.45s-2.4,6.97-6.56,6.97h-4.89v-14.42h4.28ZM125.55,32.05h1.79c2.21,0,3.53-1.66,3.53-4.46,0-3.23-1.4-4.86-4.16-4.86h-1.17v9.33ZM114.81,20.17h-3.07v14.42h9.31v-2.55h-6.24v-11.87ZM107.6,30.22c.51,1.03.95,1.93,1.96,1.93h.73v2.37l-.11.03s-.55.15-1.49.15c-2.43,0-3.17-1.67-3.83-3.14-.54-1.21-1-2.25-2.27-2.25h-1.35v5.29h-3.07v-14.42h5.11c3.74,0,5.48,1.46,5.48,4.59,0,1.94-1.16,3.13-2.32,3.64.51.49.84,1.17,1.17,1.82M101.24,26.92h1.71c1.71,0,2.76-.8,2.76-2.08,0-1.35-.93-2.12-2.54-2.12h-1.94v4.2ZM89.97,20.05c3.12,0,6.45,1.93,6.45,7.35s-3.33,7.31-6.45,7.31-6.46-1.92-6.46-7.31,3.34-7.35,6.46-7.35M89.97,32.03c1.22,0,3.27-.6,3.27-4.62s-2.05-4.62-3.27-4.62c-2.12,0-3.29,1.64-3.29,4.62s1.17,4.62,3.29,4.62M79.6,20.17h3.47l-4.14,14.42h-3.47l-2.52-9.05-2.56,9.05h-3.47l-4.14-14.42h3.57l2.42,10.52,2.91-10.52h2.58l2.81,10.52,2.52-10.52Z"/>
  <g>
    <path class="cls-1" d="M38.74,49.53c3.24-.04,6.31-.51,9.03-1.43.69-.23,1.34-.49,1.96-.76-.76,1.85-1.87,3.39-3.32,4.54-2.86,2.11-6.23,3.55-9.9,4.1.92-1.58,1.66-3.82,2.22-6.45M23.5,54.03c-.07-.05-.14-.11-.22-.15-1.28-.62-1.79-3.46-1.12-7.81,2.45,1.1,5.11,1.97,7.92,2.57,2.12.45,4.24.73,6.31.84-1.01,4.41-2.31,6.72-3.18,6.72-.05,0-.11.01-.16.02-3.41-.02-6.65-.81-9.54-2.2M11.67,39.98c-.2-.75-.32-1.51-.37-2.28.76,1.09,1.7,2.15,2.81,3.18,1.68,1.55,3.67,2.94,5.89,4.13-.45,2.54-.58,4.84-.29,6.69-3.83-2.89-6.69-6.99-8.04-11.72M40.19,33.82c0-.89-.01-1.79-.04-2.69,2.85-.19,5.5-.93,7.66-2.17,2,3.96,3.08,8.14,3.07,12.09,0,1.14-.1,2.23-.28,3.26-1.03.63-2.22,1.18-3.55,1.63-2.37.8-5.04,1.23-7.87,1.3.68-4.08,1.01-8.81,1.01-13.41M30.55,46.4c-2.84-.61-5.52-1.51-7.96-2.65.8-3.59,2.28-7.94,4.64-12.77.34-.7.69-1.39,1.05-2.06,1.65.74,3.44,1.33,5.32,1.73,1.43.31,2.86.47,4.26.52.02.86.04,1.75.04,2.66,0,5.4-.43,9.89-1.06,13.39-2.05-.09-4.16-.36-6.29-.81M15.68,39.2c-1.95-1.8-3.29-3.71-3.97-5.6.54-2.12,1.59-4.25,3.13-6.29,1.46-1.93,3.28-3.68,5.36-5.17.6,1.09,1.44,2.15,2.52,3.15,1.02.95,2.21,1.82,3.53,2.58-.36.69-.72,1.39-1.06,2.1-2.04,4.17-3.7,8.65-4.67,12.71-1.81-1.02-3.44-2.19-4.83-3.47M38.63,17.89c2.61,1.94,5,4.45,7,7.38.38.56.74,1.12,1.08,1.69-1.83,1.06-4.15,1.69-6.65,1.87-.21-3.96-.68-7.77-1.42-10.94M34.08,28.4c-1.66-.35-3.24-.86-4.69-1.5,2.14-3.74,4.48-7,6.79-9.42.72,2.84,1.33,6.66,1.58,11.39-1.22-.05-2.45-.2-3.68-.47M24.28,23.62c-.95-.89-1.67-1.81-2.16-2.74,2.15-1.29,4.53-2.35,7.06-3.11,1.51-.45,3.03-.79,4.55-1.02-2.2,2.46-4.39,5.59-6.4,9.12-1.15-.66-2.18-1.42-3.06-2.24M19.35,16.31c-.03.12-.07.23-.09.35-.23,1.08-.21,2.19.07,3.29-2.47,1.7-4.61,3.72-6.32,5.98-.52.69-.99,1.39-1.41,2.1,1.27-4.7,4.04-8.79,7.75-11.72M21.5,17.14c.25-1.19.97-2.25,2.08-3.13,2.68-.8,5.79-.61,9.07.59-1.38.24-2.76.56-4.12.97-2.53.76-4.92,1.8-7.11,3.06-.05-.5-.03-1,.08-1.48M40.11,14.12c.79-.51,1.51-.86,2.12-1,1.15.46,2.29,1.05,3.37,1.79-1.74-.43-3.58-.7-5.49-.79M36.25,11.66c.93.1,1.92.26,2.94.5-.64.34-1.3.77-1.98,1.29-.3-.68-.62-1.28-.97-1.79M33.76,12.56c-1.04-.4-2.06-.7-3.07-.93.81-.09,1.63-.14,2.47-.14.39,0,.87.47,1.37,1.38-.25-.11-.51-.22-.76-.31M8.52,33.86c0,2.34.34,4.61.95,6.76.04.15.07.29.11.43.01.03.02.05.03.08,3.11,10.06,12.5,17.39,23.57,17.39,5.12,0,9.88-1.57,13.83-4.25.04-.02.08-.04.12-.07.23-.16.46-.33.68-.5,4.54-3.35,7.89-8.22,9.3-13.85.08-.26.15-.52.21-.79.01-.06.02-.12.02-.19.34-1.62.51-3.3.51-5.01,0-3.33-.65-6.56-1.94-9.6-.25-.58-.92-.86-1.5-.61-.58.24-.86.92-.61,1.5,1.17,2.76,1.76,5.69,1.76,8.71,0,1.85-.23,3.65-.66,5.37-.34,1.09-.93,2.09-1.76,3,.02-.39.03-.78.03-1.18,0-4.4-1.21-9.05-3.47-13.42,1.66-1.42,2.71-3.18,3.07-5.14.12-.62-.3-1.22-.92-1.34-.62-.12-1.22.3-1.34.92-.24,1.3-.92,2.49-1.97,3.5-.33-.54-.67-1.08-1.03-1.61-2.01-2.95-4.41-5.51-7.02-7.54,3.46.23,6.65,1.06,9.22,2.5.4.23.94.22,1.32-.09.49-.4.55-1.13.15-1.62-3.7-5.17-10.09-8.02-18-8.02-13.6,0-24.66,11.06-24.66,24.66"/>
    <g class="cls-3">
      <rect class="cls-2" x="8.52" y="9.2" width="49.32" height="49.32"/>
    </g>
  </g>
  <g>
    <path class="cls-2" d="M64.47,47.52v-7.96h2.75c1.92,0,3.11.89,3.11,2.72s-1.29,2.64-2.9,2.64h-1.39v2.61h-1.57ZM67.15,43.66c1.05,0,1.59-.48,1.59-1.39,0-.85-.52-1.45-1.65-1.45h-1.06v2.83h1.12Z"/>
    <path class="cls-2" d="M71.48,47.52v-3.86c0-.31-.1-.49-.46-.49v-1.11s.19-.08.61-.08c.96,0,1.12.69,1.12.94v.03c.15-.47.58-.99,1.63-.99.57,0,.86.22.86.22l-.6,1.31s-.23-.17-.71-.17c-.69,0-.96.61-.98,1.06v3.14h-1.48Z"/>
    <path class="cls-2" d="M75.53,44.77c0-1.67.93-2.8,2.55-2.8s2.56,1.13,2.56,2.8-.93,2.82-2.56,2.82-2.55-1.13-2.55-2.82ZM79.16,44.78c0-.96-.34-1.51-1.08-1.51s-1.08.56-1.08,1.51.33,1.51,1.08,1.51,1.08-.56,1.08-1.51Z"/>
    <path class="cls-2" d="M84.78,44.06s.06-.16.06-.4c0-.33-.24-.57-.88-.57-.56,0-.85.22-.85.58,0,1.13,3.15.2,3.15,2.21,0,1.04-.76,1.71-2.38,1.71-2.01,0-2.54-1.15-2.54-1.15l.83-.83s.58.83,1.64.83c.6,0,.84-.19.84-.49,0-.9-3.04-.17-3.04-2.24,0-.89.61-1.74,2.32-1.74s2.24.77,2.24,1.57c0,.31-.09.52-.09.52h-1.31Z"/>
    <path class="cls-2" d="M87.55,50.3v-6.63c0-.31-.1-.49-.46-.49v-1.11s.23-.08.65-.08c.81,0,1.12.49,1.12.89h0c.13-.26.55-.9,1.66-.9s2.21.84,2.21,2.79c0,2.05-1.12,2.83-2.31,2.83-.98,0-1.39-.58-1.39-.58v3.29h-1.48ZM89.03,45.35c.02.24.27.94,1.08.94.66,0,1.15-.49,1.15-1.51,0-1.1-.6-1.51-1.16-1.51-.9,0-1.07.96-1.07.96v1.13Z"/>
    <path class="cls-2" d="M95.07,45.04h0c0,.84.66,1.33,1.34,1.33.91,0,1.34-.71,1.34-.71l.76.79s-.6,1.14-2.31,1.14c-1.5,0-2.63-.97-2.63-2.8s.88-2.82,2.61-2.82,2.23,1.16,2.23,1.84c0,1.1-.82,1.4-2.09,1.4-.74,0-1.25-.17-1.25-.17ZM96.09,44.33c.53,0,.94-.09.94-.45,0-.31-.28-.74-.93-.74-.59,0-1,.38-1,.99,0,0,.32.2.99.2Z"/>
    <path class="cls-2" d="M99.75,47.52v-3.86c0-.31-.1-.49-.46-.49v-1.11s.19-.08.61-.08c.96,0,1.12.69,1.12.94v.03c.15-.47.58-.99,1.63-.99.57,0,.86.22.86.22l-.6,1.31s-.23-.17-.71-.17c-.69,0-.96.61-.98,1.06v3.14h-1.48Z"/>
    <path class="cls-2" d="M105,41.04c-.52,0-.93-.36-.93-.89s.41-.91.93-.91.94.39.94.91-.42.89-.94.89ZM106.19,47.5s-.24.08-.66.08c-.84,0-1.29-.46-1.29-1.45v-4.1h1.49v3.86c0,.32.1.49.46.49v1.12Z"/>
    <path class="cls-2" d="M111.37,47.03s-.57.56-1.46.56c-1.6,0-2.22-.86-2.22-2.4v-1.98h-.83v-1.17h.83v-1.72h1.49v1.72h1.89v1.17h-1.89v1.91c0,.79.27,1.16.89,1.16.53,0,.85-.32.85-.32l.44,1.07Z"/>
    <path class="cls-2" d="M117.01,47.77c0,1.56-.99,2.56-2.56,2.56-1.76,0-2.39-1.13-2.39-1.13l.77-.85s.43.68,1.4.68c.72,0,1.37-.36,1.37-1.27v-1.01c-.25.44-.76.84-1.7.84-1.26,0-1.74-.8-1.74-1.98v-3.57h1.49v3.24c0,.72.32,1,.77,1,.84,0,1.08-.85,1.09-1.16v-3.08h1.49v5.73Z"/>
  </g>
</svg>